<mxfile host="app.diagrams.net" agent="Mozilla/5.0 (Windows NT 10.0; Win64; x64) AppleWebKit/537.36 (KHTML, like Gecko) Chrome/126.0.0.0 Safari/537.36" version="24.7.4">
  <diagram id="0mcFUSr4ymJwKAcMVuKt" name="Page-1">
    <mxGraphModel dx="1050" dy="557" grid="1" gridSize="10" guides="1" tooltips="1" connect="1" arrows="1" fold="1" page="1" pageScale="1" pageWidth="827" pageHeight="1169" math="0" shadow="0">
      <root>
        <mxCell id="0" />
        <mxCell id="1" parent="0" />
        <mxCell id="vQADBCuyyoW7ALHFSoMh-15" value="" style="edgeStyle=orthogonalEdgeStyle;rounded=0;orthogonalLoop=1;jettySize=auto;html=1;" edge="1" parent="1" source="vQADBCuyyoW7ALHFSoMh-16" target="vQADBCuyyoW7ALHFSoMh-19">
          <mxGeometry relative="1" as="geometry" />
        </mxCell>
        <mxCell id="vQADBCuyyoW7ALHFSoMh-16" value="UP Button Pressed" style="ellipse;whiteSpace=wrap;html=1;fillColor=#60a917;fontColor=#ffffff;strokeColor=#2D7600;" vertex="1" parent="1">
          <mxGeometry x="10" y="220" width="120" height="80" as="geometry" />
        </mxCell>
        <mxCell id="vQADBCuyyoW7ALHFSoMh-17" value="" style="edgeStyle=orthogonalEdgeStyle;rounded=0;orthogonalLoop=1;jettySize=auto;html=1;" edge="1" parent="1" source="vQADBCuyyoW7ALHFSoMh-19" target="vQADBCuyyoW7ALHFSoMh-21">
          <mxGeometry relative="1" as="geometry" />
        </mxCell>
        <mxCell id="vQADBCuyyoW7ALHFSoMh-18" value="" style="edgeStyle=orthogonalEdgeStyle;rounded=0;orthogonalLoop=1;jettySize=auto;html=1;" edge="1" parent="1" source="vQADBCuyyoW7ALHFSoMh-19" target="vQADBCuyyoW7ALHFSoMh-32">
          <mxGeometry relative="1" as="geometry" />
        </mxCell>
        <mxCell id="vQADBCuyyoW7ALHFSoMh-19" value="Winch engages spool with UP torque and speed (minimal torque to not hinder the climber)" style="whiteSpace=wrap;html=1;" vertex="1" parent="1">
          <mxGeometry x="170" y="210" width="120" height="80" as="geometry" />
        </mxCell>
        <mxCell id="vQADBCuyyoW7ALHFSoMh-20" value="" style="edgeStyle=orthogonalEdgeStyle;rounded=0;orthogonalLoop=1;jettySize=auto;html=1;" edge="1" parent="1" source="vQADBCuyyoW7ALHFSoMh-21" target="vQADBCuyyoW7ALHFSoMh-23">
          <mxGeometry relative="1" as="geometry" />
        </mxCell>
        <mxCell id="vQADBCuyyoW7ALHFSoMh-21" value="Accelerometer on spool sends acceleration data to microcontroller." style="whiteSpace=wrap;html=1;" vertex="1" parent="1">
          <mxGeometry x="320" y="230" width="120" height="60" as="geometry" />
        </mxCell>
        <mxCell id="vQADBCuyyoW7ALHFSoMh-22" value="" style="edgeStyle=orthogonalEdgeStyle;rounded=0;orthogonalLoop=1;jettySize=auto;html=1;" edge="1" parent="1" source="vQADBCuyyoW7ALHFSoMh-23" target="vQADBCuyyoW7ALHFSoMh-26">
          <mxGeometry relative="1" as="geometry" />
        </mxCell>
        <mxCell id="vQADBCuyyoW7ALHFSoMh-23" value="Microcontroller performs ADC and runs code logic." style="whiteSpace=wrap;html=1;" vertex="1" parent="1">
          <mxGeometry x="460" y="230" width="120" height="60" as="geometry" />
        </mxCell>
        <mxCell id="vQADBCuyyoW7ALHFSoMh-24" value="" style="edgeStyle=orthogonalEdgeStyle;rounded=0;orthogonalLoop=1;jettySize=auto;html=1;" edge="1" parent="1" source="vQADBCuyyoW7ALHFSoMh-26" target="vQADBCuyyoW7ALHFSoMh-27">
          <mxGeometry relative="1" as="geometry" />
        </mxCell>
        <mxCell id="vQADBCuyyoW7ALHFSoMh-25" value="" style="edgeStyle=orthogonalEdgeStyle;rounded=0;orthogonalLoop=1;jettySize=auto;html=1;" edge="1" parent="1" source="vQADBCuyyoW7ALHFSoMh-26" target="vQADBCuyyoW7ALHFSoMh-29">
          <mxGeometry relative="1" as="geometry" />
        </mxCell>
        <mxCell id="vQADBCuyyoW7ALHFSoMh-26" value="Is climber&amp;nbsp;&lt;div&gt;&lt;div&gt;below 2nd clip-in?&lt;/div&gt;&lt;/div&gt;" style="rhombus;whiteSpace=wrap;html=1;" vertex="1" parent="1">
          <mxGeometry x="600" y="210" width="120" height="100" as="geometry" />
        </mxCell>
        <mxCell id="vQADBCuyyoW7ALHFSoMh-27" value="Pull faster, taking up more slack." style="whiteSpace=wrap;html=1;" vertex="1" parent="1">
          <mxGeometry x="600" y="340" width="120" height="60" as="geometry" />
        </mxCell>
        <mxCell id="vQADBCuyyoW7ALHFSoMh-28" value="Yes" style="text;html=1;align=center;verticalAlign=middle;whiteSpace=wrap;rounded=0;" vertex="1" parent="1">
          <mxGeometry x="650" y="310" width="60" height="30" as="geometry" />
        </mxCell>
        <mxCell id="vQADBCuyyoW7ALHFSoMh-29" value="Pull at normal speed" style="whiteSpace=wrap;html=1;" vertex="1" parent="1">
          <mxGeometry x="740" y="230" width="70" height="60" as="geometry" />
        </mxCell>
        <mxCell id="vQADBCuyyoW7ALHFSoMh-30" value="No" style="text;html=1;align=center;verticalAlign=middle;whiteSpace=wrap;rounded=0;" vertex="1" parent="1">
          <mxGeometry x="700" y="230" width="60" height="30" as="geometry" />
        </mxCell>
        <mxCell id="vQADBCuyyoW7ALHFSoMh-31" value="" style="edgeStyle=orthogonalEdgeStyle;rounded=0;orthogonalLoop=1;jettySize=auto;html=1;" edge="1" parent="1" source="vQADBCuyyoW7ALHFSoMh-32" target="vQADBCuyyoW7ALHFSoMh-36">
          <mxGeometry relative="1" as="geometry" />
        </mxCell>
        <mxCell id="vQADBCuyyoW7ALHFSoMh-32" value="Centrifugal brake applied, stopping climber." style="whiteSpace=wrap;html=1;" vertex="1" parent="1">
          <mxGeometry x="170" y="310" width="120" height="60" as="geometry" />
        </mxCell>
        <mxCell id="vQADBCuyyoW7ALHFSoMh-33" style="edgeStyle=orthogonalEdgeStyle;rounded=0;orthogonalLoop=1;jettySize=auto;html=1;exitX=1;exitY=0.5;exitDx=0;exitDy=0;entryX=0.5;entryY=0;entryDx=0;entryDy=0;" edge="1" parent="1" source="vQADBCuyyoW7ALHFSoMh-36" target="vQADBCuyyoW7ALHFSoMh-38">
          <mxGeometry relative="1" as="geometry" />
        </mxCell>
        <mxCell id="vQADBCuyyoW7ALHFSoMh-34" style="edgeStyle=orthogonalEdgeStyle;rounded=0;orthogonalLoop=1;jettySize=auto;html=1;exitX=0.5;exitY=1;exitDx=0;exitDy=0;entryX=0.5;entryY=0;entryDx=0;entryDy=0;" edge="1" parent="1" source="vQADBCuyyoW7ALHFSoMh-36" target="vQADBCuyyoW7ALHFSoMh-39">
          <mxGeometry relative="1" as="geometry" />
        </mxCell>
        <mxCell id="vQADBCuyyoW7ALHFSoMh-35" style="edgeStyle=orthogonalEdgeStyle;rounded=0;orthogonalLoop=1;jettySize=auto;html=1;exitX=0;exitY=0.5;exitDx=0;exitDy=0;entryX=0.5;entryY=0;entryDx=0;entryDy=0;" edge="1" parent="1" source="vQADBCuyyoW7ALHFSoMh-36" target="vQADBCuyyoW7ALHFSoMh-37">
          <mxGeometry relative="1" as="geometry" />
        </mxCell>
        <mxCell id="vQADBCuyyoW7ALHFSoMh-36" value="Climber consults the SLAB REMOTE and presses:&amp;nbsp;" style="whiteSpace=wrap;html=1;" vertex="1" parent="1">
          <mxGeometry x="170" y="390" width="120" height="60" as="geometry" />
        </mxCell>
        <mxCell id="vQADBCuyyoW7ALHFSoMh-37" value="UP-Relay spring releases centrifugal brake; Eddy currents off." style="rounded=0;whiteSpace=wrap;html=1;" vertex="1" parent="1">
          <mxGeometry x="20" y="470" width="120" height="60" as="geometry" />
        </mxCell>
        <mxCell id="vQADBCuyyoW7ALHFSoMh-38" value="PROJECT-Nothing changes" style="rounded=0;whiteSpace=wrap;html=1;" vertex="1" parent="1">
          <mxGeometry x="310" y="470" width="120" height="60" as="geometry" />
        </mxCell>
        <mxCell id="vQADBCuyyoW7ALHFSoMh-39" value="DOWN-Relay spring releases centrifugal brake; Eddy currents in DOWN mode." style="rounded=0;whiteSpace=wrap;html=1;" vertex="1" parent="1">
          <mxGeometry x="170" y="470" width="120" height="60" as="geometry" />
        </mxCell>
        <mxCell id="vQADBCuyyoW7ALHFSoMh-40" value="&amp;nbsp;START Button Pressed" style="ellipse;whiteSpace=wrap;html=1;fillColor=#60a917;fontColor=#ffffff;strokeColor=#2D7600;" vertex="1" parent="1">
          <mxGeometry x="160" y="20" width="120" height="80" as="geometry" />
        </mxCell>
        <mxCell id="vQADBCuyyoW7ALHFSoMh-42" value="" style="edgeStyle=orthogonalEdgeStyle;rounded=0;orthogonalLoop=1;jettySize=auto;html=1;" edge="1" parent="1" source="vQADBCuyyoW7ALHFSoMh-41" target="vQADBCuyyoW7ALHFSoMh-40">
          <mxGeometry relative="1" as="geometry" />
        </mxCell>
        <mxCell id="vQADBCuyyoW7ALHFSoMh-47" value="" style="edgeStyle=orthogonalEdgeStyle;rounded=0;orthogonalLoop=1;jettySize=auto;html=1;" edge="1" parent="1" source="vQADBCuyyoW7ALHFSoMh-41" target="vQADBCuyyoW7ALHFSoMh-44">
          <mxGeometry relative="1" as="geometry" />
        </mxCell>
        <mxCell id="vQADBCuyyoW7ALHFSoMh-41" value="Is SLAB on?" style="rhombus;whiteSpace=wrap;html=1;" vertex="1" parent="1">
          <mxGeometry x="30" y="20" width="80" height="80" as="geometry" />
        </mxCell>
        <mxCell id="vQADBCuyyoW7ALHFSoMh-45" style="edgeStyle=orthogonalEdgeStyle;rounded=0;orthogonalLoop=1;jettySize=auto;html=1;exitX=0.5;exitY=1;exitDx=0;exitDy=0;entryX=0.5;entryY=0;entryDx=0;entryDy=0;" edge="1" parent="1" source="vQADBCuyyoW7ALHFSoMh-44" target="vQADBCuyyoW7ALHFSoMh-16">
          <mxGeometry relative="1" as="geometry" />
        </mxCell>
        <mxCell id="vQADBCuyyoW7ALHFSoMh-52" style="edgeStyle=orthogonalEdgeStyle;rounded=0;orthogonalLoop=1;jettySize=auto;html=1;entryX=0.5;entryY=0;entryDx=0;entryDy=0;" edge="1" parent="1" source="vQADBCuyyoW7ALHFSoMh-44" target="vQADBCuyyoW7ALHFSoMh-19">
          <mxGeometry relative="1" as="geometry" />
        </mxCell>
        <mxCell id="vQADBCuyyoW7ALHFSoMh-44" value="In UP&amp;nbsp;&lt;div&gt;mode?&lt;/div&gt;" style="rhombus;whiteSpace=wrap;html=1;" vertex="1" parent="1">
          <mxGeometry x="30" y="120" width="80" height="80" as="geometry" />
        </mxCell>
        <mxCell id="vQADBCuyyoW7ALHFSoMh-48" value="No" style="text;html=1;align=center;verticalAlign=middle;whiteSpace=wrap;rounded=0;" vertex="1" parent="1">
          <mxGeometry x="100" y="40" width="60" height="30" as="geometry" />
        </mxCell>
        <mxCell id="vQADBCuyyoW7ALHFSoMh-49" value="Yes" style="text;html=1;align=center;verticalAlign=middle;whiteSpace=wrap;rounded=0;" vertex="1" parent="1">
          <mxGeometry x="60" y="100" width="60" height="30" as="geometry" />
        </mxCell>
        <mxCell id="vQADBCuyyoW7ALHFSoMh-53" value="No" style="text;html=1;align=center;verticalAlign=middle;whiteSpace=wrap;rounded=0;" vertex="1" parent="1">
          <mxGeometry x="50" y="190" width="60" height="30" as="geometry" />
        </mxCell>
        <mxCell id="vQADBCuyyoW7ALHFSoMh-54" value="Yes" style="text;html=1;align=center;verticalAlign=middle;whiteSpace=wrap;rounded=0;" vertex="1" parent="1">
          <mxGeometry x="130" y="140" width="60" height="30" as="geometry" />
        </mxCell>
      </root>
    </mxGraphModel>
  </diagram>
</mxfile>
